<?xml version="1.0" encoding="UTF-8" standalone="no"?>
<svg
   xmlns="http://www.w3.org/2000/svg"
   version="1.1"
   viewBox="0 0 8110 8050">
  <g>
    <path
       fill="#3fb68b"
       d="m 3815,7863 c -33,-2 -116,-10 -185,-18 -468,-59 -902,-199 -1350,-435 -155,-82 -204,-112 -400,-249 C 1583,6954 1231,6594 980,6240 816,6009 644,5685 540,5410 524,5369 500,5307 486,5274 442,5170 348,4786 316,4583 279,4351 270,3696 300,3465 c 55,-411 201,-898 372,-1239 114,-228 302,-528 441,-706 119,-152 509,-537 642,-634 38,-28 83,-61 100,-73 339,-252 873,-499 1280,-594 182,-42 212,-48 325,-63 518,-72 1047,-41 1521,87 195,54 574,202 671,263 21,13 44,24 52,24 7,0 19,6 25,14 7,8 25,18 41,21 31,7 356,215 520,332 126,91 548,508 654,647 149,195 336,489 421,661 204,415 327,807 396,1260 18,117 22,198 26,495 4,314 2,375 -16,534 -39,331 -135,699 -270,1038 -90,227 -340,670 -462,818 -20,25 -38,50 -40,57 -9,28 -184,228 -304,347 -150,150 -376,350 -420,373 -16,9 -76,49 -132,89 -56,41 -107,74 -112,74 -4,0 -14,7 -21,15 -15,18 -312,179 -435,236 -306,141 -641,238 -1019,295 -178,26 -514,39 -741,27 z" />
    <path
       fill="#444444"
       d="m 5080,7390 c -146,-10 -313,-52 -489,-124 -433,-177 -776,-501 -986,-931 -229,-467 -262,-1004 -94,-1500 87,-254 210,-463 400,-679 301,-340 412,-507 519,-782 85,-217 124,-441 124,-704 -1,-452 -132,-852 -397,-1210 -88,-119 -274,-305 -392,-393 -252,-186 -561,-313 -862,-352 -147,-19 -373,-19 -514,1 -61,8 -125,14 -143,12 l -31,-3 33,-32 c 18,-17 81,-56 140,-86 779,-397 1652,-497 2497,-286 578,145 1145,451 1579,854 444,412 762,877 966,1410 204,535 284,1009 266,1575 -8,248 -18,343 -51,525 -177,962 -669,1777 -1410,2337 -243,183 -422,288 -585,342 -66,21 -98,25 -260,29 -102,3 -241,1 -310,-3 z" />
    <path
       fill="#3fb68b"
       d="M 5724.7343,4840.8455 V 4026.4637 H 5028.431 v 814.3818 z m 1070.2433,0 v -814.3818 h -716.4017 v 814.3818 z M 5724.7343,3695.2329 V 2873.3142 H 5028.431 v 821.9187 z m 1070.2433,0 v -821.9187 h -716.4017 v 821.9187 z m 308.817,1494.4296 H 6078.5759 V 6292.7628 H 5724.7343 V 5189.6625 H 4714.5894 V 2532.0341 h 1010.1449 v -736.3033 h 353.8416 v 736.3033 h 1025.2187 z" />
    <path
       fill="#444444"
       d="m 1313.7634,3510.4966 195.96,-253.3493 c 167.4872,281.3785 345.8611,526.7473 535.1216,736.1064 v -2223.59 h 343.7924 v 1959.7976 c 217.7334,-241.1816 422.9052,-441.3288 615.5155,-600.4417 l 180.8862,268.4231 c -594.5796,497.4371 -1036.7459,985.2188 -1326.4988,1623.3451 h 1228.5188 v 343.7923 H 1484.6002 v -303.7923 c 122.2657,-281.3785 229.6545,-545.1709 402.1663,-791.3771 -222.758,-237.8319 -387.0924,-464.1366 -573.0031,-758.9141 z m 622.8554,2100.2898 256.157,-118.0786 c 122.2657,241.1816 273.0042,506.5504 452.2155,756.1063 l -256.157,113.0539 c -217.7334,-299.8021 -368.4719,-563.496 -452.2155,-751.0816 z" />
  </g>
</svg>
